<?xml version="1.0" encoding="utf-8"?>
<!-- Generator: Adobe Illustrator 18.0.0, SVG Export Plug-In . SVG Version: 6.00 Build 0)  -->
<!DOCTYPE svg PUBLIC "-//W3C//DTD SVG 1.1//EN" "http://www.w3.org/Graphics/SVG/1.1/DTD/svg11.dtd">
<svg version="1.1" id="Layer_6" xmlns="http://www.w3.org/2000/svg" xmlns:xlink="http://www.w3.org/1999/xlink" x="0px" y="0px"
	 viewBox="0 0 106 102" enable-background="new 0 0 106 102" xml:space="preserve">
<g>
	<path opacity="5.000000e-02" fill="#3C3E3C" d="M64.7,74.3c-0.7,2.7-3.1,4.8-6.1,4.8H41.9c-3.4,0-6.2-2.8-6.2-6.2V40.1
		c0.6,0.9,1.7,1.6,2.9,1.7c1.9,0.2,5,0.4,8.6,0.5L64.7,74.3z"/>
	<path fill="none" stroke="#999999" stroke-width="0.6812" stroke-miterlimit="10" d="M35.9,24.6c1.5-0.3,8.1-0.9,14.1-0.9
		c6,0,13.4,0.8,14.9,0.9"/>
	<g>
		<g>
			<path fill="#999999" d="M41.8,71.6v-1.7l-0.6-2.6h0.5l0.3,1.9l0.3-1.9h0.5l-0.6,2.6v1.7H41.8z"/>
			<path fill="#999999" d="M45.1,70.9V68c0-0.4,0.2-0.8,0.8-0.8c0.6,0,0.8,0.3,0.8,0.8v2.9c0,0.4-0.2,0.8-0.8,0.8
				C45.3,71.6,45.1,71.3,45.1,70.9z M45.6,70.9c0,0.2,0.1,0.3,0.3,0.3c0.2,0,0.3-0.1,0.3-0.3V68c0-0.2-0.1-0.3-0.3-0.3
				c-0.2,0-0.3,0.1-0.3,0.3V70.9z"/>
			<path fill="#999999" d="M50.4,70.4c0-0.6,0-1.1,0-1.7v-1.4h0.5v4.3h-0.5l-0.8-3.1c0,0.6,0,1.1,0,1.7v1.4h-0.5v-4.3h0.5L50.4,70.4
				z"/>
			<path fill="#999999" d="M53.4,67.3h0.8c0.6,0,0.7,0.3,0.7,0.7v2.8c0,0.4-0.1,0.7-0.7,0.7h-0.8V67.3z M54.2,71.1
				c0.2,0,0.3-0.1,0.3-0.3V68c0-0.2-0.1-0.3-0.3-0.3h-0.3v3.4H54.2z"/>
			<path fill="#999999" d="M57.5,67.3h0.8c0.6,0,0.7,0.3,0.7,0.7v1c0,0.4-0.1,0.6-0.4,0.7l0.7,1.9h-0.5l-0.6-1.8H58v1.8h-0.5V67.3z
				 M58.2,69.3c0.2,0,0.3-0.1,0.3-0.3v-1c0-0.2-0.1-0.3-0.3-0.3H58v1.6H58.2z"/>
		</g>
	</g>
	<path fill="#999999" d="M55.3,31.7l0.2,2c0.1,0.8-0.5,1.4-1.2,1.5l-0.2,0c-0.6,0.1-1,0.5-1.2,1.1c-0.3,0.9-1,1.6-2,1.7
		c-1,0.1-1.9-0.4-2.3-1.2c-0.3-0.5-0.8-0.8-1.4-0.8L47,36c-0.8,0.1-1.4-0.5-1.5-1.2l-0.2-2c-0.1-0.8,0.5-1.4,1.2-1.5l7.3-0.8
		C54.6,30.4,55.2,31,55.3,31.7z"/>
	<path fill="none" stroke="#999999" stroke-width="0.6812" stroke-miterlimit="10" d="M65.2,39.1v33.8c0,3.5-2.9,6.4-6.4,6.4H41.5
		c-3.5,0-6.4-2.9-6.4-6.4V39.1c0,0,0,0,0,0c0.4,1.5,1.8,2.6,3.4,2.7c2.4,0.2,6.7,0.5,11.7,0.5h0c4.9-0.1,9.2-0.3,11.7-0.5
		C63.4,41.7,64.8,40.6,65.2,39.1C65.2,39.1,65.2,39.1,65.2,39.1z"/>
	<path fill="#CCCCCC" d="M102.6,45.8c-0.1-1-0.3-3.1-1.5-4.4c-0.7-0.7-1.6-1.1-2.6-1.1c-1.1,0-1.9,0.4-2.6,1.1
		c-1.2,1.3-1.5,3.3-1.5,4.4c-0.4,0.2-0.8,0.6-0.8,1.1v5.7c0,0.6,0.5,1.2,1.2,1.2h7.5c0.6,0,1.2-0.5,1.2-1.2v-5.7
		C103.3,46.4,103,45.9,102.6,45.8z M96.4,42c0.5-0.5,1.2-0.8,2-0.8c0.8,0,1.5,0.3,2,0.8c1,1,1.2,2.7,1.3,3.7h-6.6
		C95.2,44.7,95.4,43,96.4,42z M99.6,50.7c-0.4,0-0.7-0.2-0.8-0.5L96.3,50v-0.5l2.5-0.1c0.1-0.3,0.5-0.5,0.8-0.5
		c0.5,0,0.9,0.4,0.9,0.9C100.5,50.2,100.1,50.7,99.6,50.7z"/>
	<path opacity="0.7" fill="none" stroke="#666666" stroke-width="2.0435" stroke-linecap="round" stroke-miterlimit="10" d="
		M96.7,61.3C92,82.6,73,98.6,50.3,98.6C24,98.6,2.7,77.3,2.7,51S24,3.4,50.3,3.4c20.3,0,37.6,12.7,44.5,30.6"/>
	<path opacity="0.2" fill="none" stroke="#999999" stroke-width="0.5222" stroke-linecap="round" stroke-miterlimit="10" d="
		M33.5,71c-5.8-4.8-9.4-12-9.4-20c0-7.4,3.1-14.1,8.1-18.9"/>
	<path opacity="0.2" fill="none" stroke="#666666" stroke-width="0.5222" stroke-linecap="round" stroke-miterlimit="10" d="M67,71
		c5.8-4.8,9.4-12,9.4-20c0-7.4-3.1-14.1-8.1-18.9"/>
	
		<circle opacity="0.5" fill="none" stroke="#666666" stroke-width="1.3891" stroke-linecap="round" stroke-miterlimit="10" cx="50.2" cy="51.6" r="40.3"/>
	
		<circle opacity="0.3" fill="none" stroke="#666666" stroke-width="0.5773" stroke-linecap="round" stroke-miterlimit="10" cx="50.2" cy="51.6" r="33.5"/>
	<path fill="none" stroke="#999999" stroke-width="0.6812" stroke-miterlimit="10" d="M65.3,38.8c0,0.1-0.1,0.2-0.1,0.3c0,0,0,0,0,0
		c-0.4,1.5-1.8,2.6-3.4,2.7c-2.4,0.2-6.7,0.5-11.7,0.5h0c-1,0-2.1,0-3-0.1c-3.6-0.1-6.7-0.3-8.6-0.5c-1.2-0.1-2.2-0.7-2.9-1.7
		c-0.2-0.3-0.4-0.7-0.5-1c0,0,0,0,0,0c-0.2-0.7-0.4-1.6-0.5-2.5C34.1,33,34,29.1,34,27.4c0-0.5,0.1-1.1,0.2-1.6l0.1-0.4
		c0.2-0.3,0.4-0.6,0.7-0.8c0.4-0.3,0.9,0,0.9,0.5c0,1.9,0.1,7.1,0.5,10.6c0,0.1,0,0.3,0.1,0.4c0.4,3.3,1.4,3.6,3.9,3.9
		c1.3,0.2,3.1,0.3,5.6,0.3c1.2,0,2.5,0,4.1,0c4.9,0,7.8-0.2,9.7-0.3c2.7-0.2,3.5-0.6,3.9-3.9c0.4-3.2,0.6-8.4,0.7-10.9
		c0-0.7,0.9-0.9,1.2-0.3c0.2,0.3,0.3,0.5,0.4,0.7l0.1,0.2c0.1,0.3,0.1,0.7,0.2,1.1C66.3,28.8,66.3,34.8,65.3,38.8z"/>
</g>
</svg>
