<?xml version="1.0" encoding="utf-8"?>
<!-- Generator: Adobe Illustrator 18.0.0, SVG Export Plug-In . SVG Version: 6.00 Build 0)  -->
<!DOCTYPE svg PUBLIC "-//W3C//DTD SVG 1.1//EN" "http://www.w3.org/Graphics/SVG/1.1/DTD/svg11.dtd">
<svg version="1.1" id="Layer_7" xmlns="http://www.w3.org/2000/svg" xmlns:xlink="http://www.w3.org/1999/xlink" x="0px" y="0px"
	 viewBox="0 0 103.3 102" enable-background="new 0 0 103.3 102" xml:space="preserve">
<g>
	<g>
		<g>
			<path fill="#999999" d="M44.3,78.9v-1.6l-0.5-2.3h0.5l0.3,1.7l0.3-1.7h0.5l-0.5,2.3v1.6H44.3z"/>
			<path fill="#999999" d="M47.3,78.2v-2.7c0-0.4,0.2-0.7,0.7-0.7c0.5,0,0.7,0.3,0.7,0.7v2.7c0,0.4-0.2,0.7-0.7,0.7
				C47.5,78.9,47.3,78.6,47.3,78.2z M47.8,78.2c0,0.2,0.1,0.3,0.3,0.3c0.2,0,0.3-0.1,0.3-0.3v-2.7c0-0.2-0.1-0.3-0.3-0.3
				c-0.2,0-0.3,0.1-0.3,0.3V78.2z"/>
			<path fill="#999999" d="M52.2,77.8c0-0.5,0-1,0-1.6v-1.3h0.4v3.9h-0.4L51.4,76c0,0.5,0,1,0,1.6v1.3H51v-3.9h0.4L52.2,77.8z"/>
			<path fill="#999999" d="M54.9,74.9h0.7c0.5,0,0.7,0.3,0.7,0.7v2.6c0,0.4-0.1,0.7-0.7,0.7h-0.7V74.9z M55.6,78.4
				c0.2,0,0.3-0.1,0.3-0.3v-2.6c0-0.2-0.1-0.3-0.3-0.3h-0.3v3.1H55.6z"/>
			<path fill="#999999" d="M58.7,74.9h0.7c0.5,0,0.7,0.3,0.7,0.7v0.9c0,0.3-0.1,0.6-0.4,0.6l0.6,1.7h-0.5l-0.5-1.7h-0.1v1.7h-0.4
				V74.9z M59.4,76.8c0.2,0,0.3-0.1,0.3-0.3v-0.9c0-0.2-0.1-0.3-0.3-0.3h-0.3v1.4H59.4z"/>
		</g>
	</g>
	<path fill="none" stroke="#999999" stroke-width="0.6507" stroke-miterlimit="10" d="M65.4,43.7v36.3c0,0.5-0.1,1-0.2,1.4
		c-0.6,2.6-2.9,4.5-5.7,4.5H43.7c-3.3,0-5.9-2.6-5.9-5.9V43.7c0-0.3,0.9-0.6,2.5-0.8c0.5-0.1,1.1-0.1,1.7-0.2
		c5.3-0.5,14.4-0.5,19.6,0c0.6,0.1,1.2,0.1,1.6,0.2C64.5,43.1,65.4,43.4,65.4,43.7z"/>
	<g>
		<path fill="none" stroke="#999999" stroke-width="0.6251" stroke-miterlimit="10" d="M49.8,24.5h3.7c0.2,0,0.5-0.2,0.5-0.5
			c0-0.3-0.2-0.5-0.5-0.5h-3.7c-0.3,0-0.5,0.2-0.5,0.5C49.4,24.3,49.6,24.5,49.8,24.5z"/>
		<path fill="none" stroke="#999999" stroke-width="0.6251" stroke-miterlimit="10" d="M59.5,20h-0.1c0,0,0-0.1,0-0.1
			c0-0.1-0.1-0.1-0.1-0.1h-3.6c-0.1,0-0.1,0-0.1,0.1c0,0.1,0,0.1,0,0.1H43.9c-2,0-3.7,1.7-3.7,3.7v3.1c0,0-0.1,0-0.1,0
			c-0.1,0-0.1,0-0.1,0.1v1.9c0,0.1,0.1,0.1,0.1,0.1c0.1,0,0.1,0,0.1,0v2.4c0,0-0.1,0-0.1,0c-0.1,0-0.1,0-0.1,0.1v1.4
			c0,0.1,0.1,0.1,0.1,0.1c0.1,0,0.1,0,0.1,0v2.3c0,0-0.1,0-0.1,0c-0.1,0-0.1,0-0.1,0.1v1.4c0,0.1,0.1,0.1,0.1,0.1c0.1,0,0.1,0,0.1,0
			v5.9c0.5-0.1,1.1-0.1,1.7-0.2V27.1h19.6v15.7c0.6,0.1,1.2,0.1,1.6,0.2V23.7C63.2,21.6,61.5,20,59.5,20z"/>
	</g>
	<path fill="none" stroke="#999999" stroke-width="0.6251" stroke-miterlimit="10" d="M65.4,45.6c0-1.3-12.3-1.7-20.5-1.2
		c-4.1,0.2-7.1,0.6-7.1,1.2"/>
	<g>
		<g>
			<path fill="none" stroke="#999999" stroke-width="0.3125" stroke-miterlimit="10" d="M37.8,49.5c0-0.1,0.2-0.3,0.4-0.4"/>
			<path fill="none" stroke="#999999" stroke-width="0.3125" stroke-miterlimit="10" stroke-dasharray="1.2781,1.2781" d="
				M39.5,48.8c5.2-1,20.7-0.9,24.9,0.1"/>
			<path fill="none" stroke="#999999" stroke-width="0.3125" stroke-miterlimit="10" d="M64.9,49.1c0.3,0.1,0.4,0.2,0.4,0.4"/>
		</g>
	</g>
	<path opacity="5.000000e-02" fill="#3C3E3C" d="M61.5,42.8c-5.2-0.5-14.3-0.5-19.6,0V27.1h9.6L61.5,42.8z"/>
	<path fill="none" stroke="#999999" stroke-width="0.6251" stroke-miterlimit="10" d="M40.2,26.1c0,0-3.6,0-3.7,7.3
		c-0.1,6.3,0,9,0,9s0,1.9,1.3,2.2"/>
	<path fill="none" stroke="#999999" stroke-width="0.6251" stroke-miterlimit="10" d="M38,43.4c0,0-0.3-7.3,0-11.7
		c0,0,0.3-3.3,2-3.6"/>
	<path fill="none" stroke="#999999" stroke-width="0.6251" stroke-miterlimit="10" d="M63,26.1c0,0,3.6,0,3.7,7.3c0.1,6.3,0,9,0,9
		s0,1.9-1.3,2.2"/>
	<path fill="none" stroke="#999999" stroke-width="0.6251" stroke-miterlimit="10" d="M65.2,43.4c0,0,0.3-7.3,0-11.7
		c0,0-0.3-3.3-2-3.6"/>
	<circle fill="#3C3E3C" stroke="#999999" stroke-width="0.6251" stroke-miterlimit="10" cx="51.6" cy="46.2" r="0.4"/>
	<path opacity="5.000000e-02" fill="#3C3E3C" d="M65.2,81.5c-0.6,2.6-2.9,4.5-5.7,4.5H43.7c-3.3,0-5.9-2.6-5.9-5.9V45.6
		c0-0.6,3-1,7.1-1.2L65.2,81.5z"/>
	<g opacity="0.7">
		
			<path fill="none" stroke="#666666" stroke-width="1.8827" stroke-linecap="round" stroke-linejoin="round" stroke-miterlimit="10" d="
			M69.7,9.6c16.2,7,27.5,23.1,27.5,41.9c0,25.2-20.4,45.6-45.6,45.6S5.9,76.6,5.9,51.4c0-21.3,13.6-39.4,33.4-44
			c0,0,11.3-2.8,12.7,6.4l2.3-5.2"/>
		
			<line fill="none" stroke="#666666" stroke-width="1.8827" stroke-linecap="round" stroke-linejoin="round" stroke-miterlimit="10" x1="51.8" y1="13.8" x2="46.9" y2="11.1"/>
	</g>
</g>
</svg>
