<?xml version="1.0" encoding="utf-8"?>
<!-- Generator: Adobe Illustrator 18.0.0, SVG Export Plug-In . SVG Version: 6.00 Build 0)  -->
<!DOCTYPE svg PUBLIC "-//W3C//DTD SVG 1.1//EN" "http://www.w3.org/Graphics/SVG/1.1/DTD/svg11.dtd">
<svg version="1.1" id="Layer_5" xmlns="http://www.w3.org/2000/svg" xmlns:xlink="http://www.w3.org/1999/xlink" x="0px" y="0px"
	 viewBox="0 0 115.3 102" enable-background="new 0 0 115.3 102" xml:space="preserve">
<g>
	<g>
		<path fill="none" stroke="#999999" stroke-width="0.7083" stroke-miterlimit="10" d="M46.6,26.7H42v2.9c-0.5,0-0.9,0.1-1.3,0.1
			c-0.2,0-0.5,0.1-0.7,0.1v-1.1c0,0-0.1,0-0.1,0s-0.1-0.1-0.1-0.2v-2.2c0-0.1,0.1-0.1,0.1-0.1s0.1,0,0.1,0v-3.5
			c0-0.9,0.3-1.7,0.7-2.4C42.1,22.2,44,24.5,46.6,26.7z"/>
	</g>
	<g>
		<path opacity="5.000000e-02" fill="#3C3E3C" d="M68.2,71.6c-0.7,2.8-3.2,4.9-6.2,4.9H44.7c-3.5,0-6.4-2.9-6.4-6.4V32.5
			c0-0.7,3.3-1.1,7.7-1.3L68.2,71.6z"/>
		<path fill="none" stroke="#999999" stroke-width="0.7083" stroke-miterlimit="10" d="M68.1,36.1v34.1c0,0.4,0,0.8-0.1,1.1
			c0,0.1-0.1,0.3-0.1,0.4c-0.5,2-1.9,3.7-3.9,4.4c0,0,0,0,0,0c0,0,0,0,0,0c-0.7,0.3-1.5,0.4-2.3,0.4H44.4c-3.5,0-6.4-2.9-6.4-6.4
			V30.6c0-0.3,0.7-0.6,2-0.8c0.2,0,0.4-0.1,0.7-0.1c0.4-0.1,0.8-0.1,1.3-0.1c0.2,0,0.4,0,0.6-0.1c2.1-0.2,4.7-0.3,7.5-0.3
			c1.1,0.7,2.3,1.4,3.7,1.9c0.7,0.3,1.4,0.5,2.2,0.8c4,1.2,6.7,2.5,8.6,3.5c0.5,0.3,1,0.5,1.4,0.7c0,0,0.1,0.1,0.1,0.1
			c0.1,0.1,0.3,0.1,0.4,0.2c0.3,0.1,0.6,0.1,1,0.1C67.6,36.4,67.8,36.3,68.1,36.1z"/>
		<path fill="none" stroke="#999999" stroke-width="0.6804" stroke-miterlimit="10" d="M38,32.6c0-0.2,0.2-0.3,0.7-0.5
			c0,0,0,0,0.1,0c1.2-0.4,3.8-0.7,7-0.8c0.1,0,0.2,0,0.3,0c2.4-0.1,5-0.2,7.7-0.2"/>
		<g>
			<path fill="none" stroke="#999999" stroke-width="0.3402" stroke-miterlimit="10" stroke-dasharray="0.9735" d="M68.1,36.9
				c0-0.2-0.3-0.4-0.8-0.5"/>
		</g>
		<g>
			<g>
				<path fill="none" stroke="#999999" stroke-width="0.3402" stroke-miterlimit="10" d="M65.8,36.1c-0.2,0-0.4-0.1-0.7-0.1"/>
				<path fill="none" stroke="#999999" stroke-width="0.3402" stroke-miterlimit="10" stroke-dasharray="1.406,1.406" d="M63.7,35.8
					c-4-0.4-10.1-0.5-15.4-0.3c-4,0.1-7.4,0.4-9.2,0.8"/>
				<path fill="none" stroke="#999999" stroke-width="0.3402" stroke-miterlimit="10" d="M38.5,36.5c-0.1,0-0.2,0.1-0.2,0.1
					c-0.2,0.1-0.2,0.2-0.3,0.3c0,0,0,0,0,0"/>
			</g>
		</g>
		<circle fill="#3C3E3C" stroke="#999999" stroke-width="0.6804" stroke-miterlimit="10" cx="53.1" cy="33.4" r="0.4"/>
		<g>
			<g>
				<path fill="#999999" d="M45.1,68.2v-1.7l-0.6-2.6h0.5l0.3,1.8l0.3-1.8h0.5l-0.6,2.6v1.7H45.1z"/>
				<path fill="#999999" d="M48.4,67.5v-2.9c0-0.4,0.2-0.8,0.8-0.8c0.6,0,0.8,0.3,0.8,0.8v2.9c0,0.4-0.2,0.8-0.8,0.8
					C48.6,68.3,48.4,67.9,48.4,67.5z M48.9,67.5c0,0.2,0.1,0.3,0.3,0.3c0.2,0,0.3-0.1,0.3-0.3v-2.9c0-0.2-0.1-0.3-0.3-0.3
					c-0.2,0-0.3,0.1-0.3,0.3V67.5z"/>
				<path fill="#999999" d="M53.7,67c0-0.6,0-1.1,0-1.7v-1.4h0.5v4.3h-0.5l-0.8-3.1c0,0.6,0,1.1,0,1.7v1.4h-0.5v-4.3h0.5L53.7,67z"
					/>
				<path fill="#999999" d="M56.7,63.9h0.8c0.6,0,0.7,0.3,0.7,0.7v2.8c0,0.4-0.1,0.7-0.7,0.7h-0.8V63.9z M57.5,67.7
					c0.2,0,0.3-0.1,0.3-0.3v-2.8c0-0.2-0.1-0.3-0.3-0.3h-0.3v3.4H57.5z"/>
				<path fill="#999999" d="M60.8,63.9h0.8c0.6,0,0.7,0.3,0.7,0.7v1c0,0.4-0.1,0.6-0.4,0.7l0.7,1.9H62l-0.6-1.8h-0.1v1.8h-0.5V63.9z
					 M61.5,65.9c0.2,0,0.3-0.1,0.3-0.3v-1c0-0.2-0.1-0.3-0.3-0.3h-0.3v1.6H61.5z"/>
			</g>
		</g>
	</g>
	<path fill="#999999" d="M85,26l-1.2,1.6c-0.4,0.6-1.3,0.8-1.9,0.3l-0.2-0.1c-0.5-0.3-1.1-0.3-1.6,0c-0.8,0.5-1.8,0.5-2.6-0.1
		c-0.8-0.6-1.2-1.5-1-2.5c0.1-0.6-0.1-1.2-0.5-1.5l-0.2-0.1c-0.6-0.4-0.8-1.3-0.3-1.9l1.2-1.6c0.4-0.6,1.3-0.8,1.9-0.3l6,4.2
		C85.3,24.5,85.5,25.4,85,26z"/>
	<path fill="none" stroke="#999999" stroke-width="0.7083" stroke-miterlimit="10" d="M43.2,16.8c7.3,0.4,16.5,0.9,18.7,1
		c1.4,0.1,2.5,0.3,4.2,0.5c1.1,0,2,0.8,2.2,1.9c0.9,5.7,1.9,11.1,0.4,15.3c-0.1,0.3-0.4,0.5-0.6,0.7c-0.2,0.2-0.5,0.3-0.8,0.3
		c-0.3,0-0.6,0-1-0.1c-0.1,0-0.3-0.1-0.4-0.2c0,0-0.1,0-0.1-0.1c-0.4-0.2-0.8-0.5-1.4-0.7c-1.9-1-4.6-2.3-8.6-3.5
		c-0.7-0.2-1.5-0.5-2.2-0.8c-1.3-0.5-2.6-1.2-3.7-1.9c-1.2-0.8-2.4-1.6-3.4-2.5c-2.6-2.2-4.5-4.5-5.8-6.3c-0.7-0.9-1.1-2.3-1.4-2.8
		c-0.1-0.3,0.1-0.6,0.4-0.6"/>
	<path fill="none" stroke="#999999" stroke-width="0.7083" stroke-miterlimit="10" d="M39.8,16.9L52,21.8c0.6,0.2,1.2,0.5,1.7,0.9
		c0.5,0.3,0.8,0.8,1.1,1.3c2.7,4.3,7.8,8.3,13.2,12.3"/>
	<path fill="none" stroke="#999999" stroke-width="0.7083" stroke-miterlimit="10" d="M68.7,35.1c-5.2-3.9-9.8-7.9-12.8-12.3
		c-0.5-0.8-1.2-1.5-2.1-1.9c-0.3-0.1-0.6-0.3-0.9-0.3l-9.7-3.8c-0.8-0.3-1.6-0.4-2.4-0.1l-1.1,0.3"/>
	<path fill="none" stroke="#999999" stroke-width="0.7083" stroke-miterlimit="10" d="M67.3,34c0,0,1.3-7.4-1.5-15.7"/>
	<g opacity="0.7">
		<path fill="#CCCCCC" d="M95.7,42.3c-0.4,0.2-0.8,0.6-0.8,1.1v5.7c0,0.6,0.5,1.2,1.2,1.2h7.5c0.6,0,1.2-0.5,1.2-1.2v-5.7
			c0-0.5-0.3-0.9-0.8-1.1H95.7z M101.1,47.2c-0.4,0-0.7-0.2-0.8-0.5l-2.5-0.1V46l2.5-0.1c0.1-0.3,0.5-0.5,0.8-0.5
			c0.5,0,0.9,0.4,0.9,0.9C102,46.8,101.6,47.2,101.1,47.2z"/>
		<path fill="#CCCCCC" d="M111.5,42.3h-0.9c-0.1-1-0.3-2.7-1.3-3.7c-0.5-0.5-1.2-0.8-2-0.8c-0.8,0-1.5,0.3-2,0.8
			c-1,1-1.2,2.7-1.3,3.7h-0.9c0.1-1.1,0.3-3.1,1.5-4.3c0.7-0.7,1.6-1.1,2.6-1.1c1,0,1.9,0.4,2.6,1.1
			C111.1,39.2,111.4,41.2,111.5,42.3z"/>
	</g>
	<path opacity="0.7" fill="none" stroke="#666666" stroke-width="2.1013" stroke-linecap="round" stroke-miterlimit="10" d="
		M99.5,56.1c-4.7,21.3-23.7,37.2-46.4,37.2c-26.2,0-47.5-21.3-47.5-47.5"/>
	<path opacity="0.2" fill="none" stroke="#666666" stroke-width="0.537" stroke-linecap="round" stroke-miterlimit="10" d="
		M36.4,65.8c-5.8-4.8-9.4-12-9.4-20c0-7.4,3.1-14.1,8.1-18.8"/>
	<path opacity="0.2" fill="none" stroke="#CCCCCC" stroke-width="0.5216" stroke-linecap="round" stroke-miterlimit="10" d="
		M69.9,65.8c1-0.8,1.9-1.7,2.7-2.6"/>
	<path opacity="0.5" fill="none" stroke="#666666" stroke-width="1.4284" stroke-linecap="round" stroke-miterlimit="10" d="
		M89.7,63c-6.3,14-20.4,23.7-36.7,23.7c-22.2,0-40.3-18-40.3-40.3c0-5.6,1.2-11,3.3-15.9"/>
	<path opacity="0.3" fill="none" stroke="#666666" stroke-width="0.5937" stroke-linecap="round" stroke-miterlimit="10" d="
		M79.8,66.6C73.6,74.7,64,79.9,53.1,79.9c-18.5,0-33.5-15-33.5-33.5c0-8,2.8-15.3,7.4-21"/>
	<path fill="none" stroke="#999999" stroke-width="0.7083" stroke-miterlimit="10" d="M39.4,17.6c0,0-1.1,2.7-0.9,12.6"/>
</g>
</svg>
